<?xml version="1.0" standalone="no"?>
<!DOCTYPE svg PUBLIC "-//W3C//DTD SVG 20010904//EN"
 "http://www.w3.org/TR/2001/REC-SVG-20010904/DTD/svg10.dtd">
<svg version="1.0" xmlns="http://www.w3.org/2000/svg"
 width="1656.000000pt" height="1656.000000pt" viewBox="0 0 1656.000000 1656.000000"
 preserveAspectRatio="xMidYMid meet">
<metadata>
Created by potrace 1.14, written by Peter Selinger 2001-2017
</metadata>
<g transform="translate(0.000000,1656.000000) scale(0.100000,-0.100000)"
fill="#000000" stroke="none">
<path d="M178 12272 c-46 -2 -58 -6 -59 -20 0 -9 -2 -26 -4 -37 -3 -11 -7 -45
-10 -75 -3 -30 -7 -66 -10 -80 -3 -14 -8 -45 -10 -70 -8 -75 -15 -124 -20
-137 -2 -7 19 -18 53 -29 31 -9 61 -21 67 -26 5 -4 19 -8 32 -8 13 0 31 -4 41
-10 19 -10 190 -65 267 -85 28 -7 91 -25 140 -39 92 -27 98 -28 175 -46 69
-16 90 -20 160 -33 l65 -12 2 -90 c1 -50 4 -223 7 -385 3 -162 8 -407 11 -544
3 -138 7 -359 9 -493 2 -134 6 -246 9 -250 4 -3 2 -14 -4 -25 -5 -10 -7 -23
-4 -29 4 -5 9 -137 11 -292 2 -155 6 -408 9 -562 3 -154 7 -401 10 -550 5
-314 14 -840 20 -1275 12 -761 15 -902 20 -911 4 -5 1 -9 -5 -9 -6 0 -8 -4 -5
-10 5 -9 9 -189 19 -897 4 -291 10 -266 -64 -277 -36 -6 -57 -10 -100 -20 -14
-3 -36 -8 -50 -10 -14 -2 -43 -9 -65 -14 -22 -6 -51 -13 -65 -16 -39 -8 -200
-52 -255 -69 -27 -9 -93 -30 -145 -46 -214 -68 -218 -69 -215 -99 1 -15 6 -58
10 -97 3 -38 9 -99 11 -135 9 -140 8 -134 48 -141 20 -3 36 -3 36 2 0 4 15 4
32 0 18 -4 42 -6 53 -5 44 5 180 7 285 5 8 -1 42 0 75 0 33 1 69 1 80 0 11 -1
27 -2 35 -2 8 1 42 1 75 0 33 0 80 0 105 1 51 2 51 2 140 0 36 -1 70 -1 75 0
6 1 15 1 20 0 6 -1 46 -1 90 0 44 0 89 0 100 0 11 -1 27 -1 35 -1 8 1 42 1 75
0 33 0 80 0 105 1 25 1 54 2 65 2 11 -1 58 -1 105 -1 47 0 92 0 100 0 8 -1 42
0 75 0 33 1 69 1 80 0 11 -1 27 -2 35 -2 8 1 42 1 75 0 33 0 80 0 105 1 25 1
52 2 60 2 18 -1 207 -1 235 -1 11 0 40 0 65 -1 25 -1 71 -1 103 0 l58 3 29 56
c28 57 80 178 84 196 1 6 7 24 13 40 6 17 15 44 19 60 4 17 8 32 9 35 1 3 5
23 10 45 4 22 10 49 12 60 2 11 7 49 9 85 3 36 7 73 9 82 2 10 -2 18 -8 19 -7
0 -19 2 -28 4 -9 1 -59 6 -112 9 -53 4 -113 9 -134 11 -36 5 -109 11 -238 20
-105 8 -180 14 -180 15 0 1 -102 9 -190 14 l-60 3 2 224 c2 403 10 726 17 737
3 6 2 13 -3 17 -5 3 -8 15 -5 28 3 12 7 135 9 272 5 242 8 419 21 1045 4 162
7 336 8 385 l1 90 967 0 c531 0 969 -3 972 -6 3 -3 11 -30 17 -60 19 -96 20
-100 54 -234 13 -55 28 -107 31 -115 4 -8 8 -21 10 -28 1 -7 12 -44 23 -82 12
-39 21 -72 21 -75 0 -3 7 -22 16 -43 9 -20 18 -47 20 -59 2 -12 9 -35 16 -50
14 -34 15 -39 17 -59 0 -8 6 -12 11 -9 6 4 40 8 76 11 36 2 89 6 117 8 29 3
84 8 122 12 39 3 72 8 75 10 9 10 6 2139 -4 2152 -10 14 -117 66 -206 99 -89
34 -94 36 -107 39 -6 1 -27 7 -45 13 -18 6 -44 12 -58 15 -14 2 -36 7 -50 10
-14 3 -50 8 -80 11 -30 3 -67 7 -82 9 -39 5 -47 -5 -53 -60 -3 -27 -10 -85
-15 -129 -5 -44 -12 -111 -16 -150 -3 -38 -8 -78 -10 -90 -2 -11 -6 -47 -9
-79 -6 -61 -8 -79 -20 -176 -4 -30 -9 -68 -10 -85 -2 -16 -3 -34 -4 -40 -1 -7
-302 -10 -884 -9 -485 1 -889 2 -898 3 -13 1 -16 12 -14 59 1 32 5 64 9 70 4
7 4 12 -1 12 -9 0 -8 114 1 129 4 5 2 12 -4 16 -6 4 -8 10 -5 15 3 5 8 190 10
412 10 805 31 2035 35 2048 1 3 2 25 3 50 l2 45 1163 2 c639 0 1162 -2 1163
-5 1 -9 -6 17 79 -317 40 -154 73 -287 75 -295 2 -8 8 -35 15 -60 7 -25 14
-53 16 -63 2 -10 6 -27 9 -37 3 -10 8 -27 10 -37 2 -10 9 -36 15 -58 6 -22 12
-47 14 -55 2 -8 8 -33 14 -55 5 -22 13 -53 16 -68 l7 -29 182 6 c215 6 336 15
412 30 11 3 30 5 42 5 21 1 30 24 48 121 3 14 10 50 15 80 15 77 50 287 56
335 3 22 7 54 10 70 7 45 13 100 29 260 15 149 18 233 19 500 1 279 -5 440
-18 452 -5 6 -5317 10 -5418 5z"/>
<path d="M8819 12270 c-12 -3 -23 -14 -25 -25 -2 -11 -8 -58 -14 -105 -6 -47
-13 -101 -16 -120 -6 -44 -15 -127 -17 -158 -2 -25 10 -30 258 -106 120 -37
167 -52 237 -75 20 -7 45 -14 55 -15 10 -2 38 -10 63 -17 61 -17 51 -14 175
-44 61 -14 130 -28 154 -31 25 -2 46 -6 48 -8 4 -3 7 -163 18 -761 2 -143 5
-260 5 -260 1 0 3 -97 5 -215 9 -500 15 -873 20 -1140 3 -157 8 -409 11 -560
3 -151 5 -284 4 -295 -1 -11 -1 -24 -1 -30 3 -98 12 -613 16 -880 2 -192 5
-350 5 -350 1 0 3 -124 5 -275 7 -457 16 -922 18 -973 1 -27 -1 -51 -6 -54 -4
-2 -4 -9 -1 -15 4 -6 8 -144 11 -307 2 -163 5 -335 6 -383 l2 -87 -35 -7 c-19
-4 -39 -8 -45 -9 -38 -9 -126 -26 -146 -30 -49 -9 -367 -94 -449 -120 -47 -14
-89 -28 -95 -29 -5 -2 -23 -8 -38 -14 -16 -7 -31 -12 -34 -12 -3 0 -33 -10
-65 -22 l-60 -21 7 -76 c3 -42 8 -96 10 -121 3 -25 7 -75 10 -113 5 -78 8 -87
38 -86 49 0 193 0 212 -1 11 -1 27 -1 35 -1 8 1 42 1 75 0 33 0 80 0 105 1 25
1 54 2 65 2 11 -1 58 -1 105 -1 47 0 92 0 100 0 8 -1 42 0 75 0 33 1 69 1 80
0 11 -1 27 -2 35 -2 8 1 42 1 75 0 33 0 80 0 105 1 51 2 51 2 140 0 36 -1 70
-1 75 0 6 1 15 1 20 0 6 -1 46 -1 90 0 44 0 89 0 100 0 11 -1 27 -1 35 -1 8 1
42 1 75 0 33 0 80 0 105 1 25 1 54 2 65 2 11 -1 58 -1 105 -1 47 0 92 0 100 0
8 -1 42 0 75 0 33 1 69 1 80 0 11 -1 27 -2 35 -2 8 1 42 1 75 0 33 0 80 0 105
1 25 1 52 2 60 2 8 -1 49 -2 92 -2 42 -1 81 0 86 4 5 3 13 18 17 33 3 15 10
30 14 33 9 6 88 195 82 195 -3 0 1 9 7 21 6 11 13 32 16 45 3 13 14 60 25 105
11 44 20 89 20 100 0 10 2 47 5 82 3 34 2 63 -2 63 -4 1 -23 3 -42 4 -20 1
-65 5 -100 9 -36 4 -96 9 -135 12 -38 3 -95 7 -125 10 -58 5 -108 9 -230 19
-41 3 -95 8 -120 10 -25 2 -76 7 -113 9 -37 3 -71 7 -75 10 -6 3 -7 291 -2
291 2 0 12 578 14 737 0 93 3 168 6 168 3 0 6 91 6 203 1 178 6 486 19 1052 2
94 4 208 4 255 l1 85 968 0 c729 1 969 -2 974 -11 4 -7 10 -29 13 -50 4 -22 8
-47 11 -56 3 -9 7 -26 9 -38 2 -13 14 -61 26 -109 20 -84 27 -108 85 -296 16
-49 29 -92 29 -95 0 -3 12 -36 25 -75 13 -38 23 -73 22 -77 -2 -8 101 -4 223
8 111 11 128 12 158 13 24 1 27 5 25 29 -1 15 1 33 5 39 4 6 4 14 -1 17 -9 5
-7 99 2 115 4 5 3 12 -2 15 -4 2 -7 22 -6 43 1 21 3 52 3 68 1 17 0 41 -2 55
-2 14 0 35 5 47 4 12 4 24 0 27 -9 5 -7 797 1 820 4 9 3 16 -1 16 -9 0 -7 94
2 109 4 5 3 12 -2 15 -4 2 -7 22 -6 43 1 21 3 52 3 68 1 17 0 41 -2 55 -2 14
0 35 5 47 4 12 4 24 0 27 -4 2 -7 22 -6 43 1 21 3 52 3 68 1 17 0 41 -2 55 -2
14 0 35 5 47 4 12 4 24 0 27 -4 2 -7 22 -6 43 1 21 3 52 3 68 1 17 0 41 -2 55
-2 14 0 35 5 47 4 13 3 25 -3 28 -5 4 -7 11 -3 16 6 10 -203 113 -223 110 -2
0 -23 8 -48 19 -25 11 -55 21 -68 22 -12 2 -28 7 -35 12 -7 4 -16 5 -19 2 -3
-3 -13 -1 -22 3 -15 8 -57 16 -151 26 -96 11 -110 12 -111 6 0 -3 -2 -13 -3
-21 -5 -26 -18 -130 -22 -184 -2 -28 -6 -65 -9 -82 -2 -17 -7 -57 -10 -90 -4
-32 -8 -69 -10 -82 -4 -21 -14 -114 -20 -187 -10 -106 -18 -161 -25 -165 -5
-3 -408 -5 -897 -5 l-888 1 2 294 c3 620 34 2505 42 2562 1 4 523 7 1162 7
964 0 1161 -3 1165 -14 3 -7 7 -19 8 -27 2 -7 6 -20 9 -28 3 -8 8 -26 10 -40
3 -14 17 -70 31 -125 14 -55 27 -109 29 -120 2 -11 7 -27 10 -35 5 -13 40
-152 52 -205 2 -11 9 -38 15 -60 6 -22 12 -47 14 -55 2 -8 14 -53 26 -100 12
-47 24 -92 26 -100 2 -8 11 -44 20 -80 9 -36 16 -71 17 -79 0 -11 34 -13 201
-7 111 3 212 8 226 10 14 3 54 7 90 10 36 3 79 9 95 12 17 4 35 7 42 7 6 0 15
19 19 41 3 23 8 50 11 61 11 53 22 110 28 155 3 19 8 46 12 60 9 38 10 41 17
95 3 28 8 61 11 75 8 45 24 165 30 225 1 17 3 30 4 30 1 0 4 27 6 60 3 33 7
78 9 100 25 223 25 834 1 898 -4 9 -17 17 -29 18 -125 4 -5411 3 -5427 -1z"/>
<path d="M7219 5506 c-2 -2 -69 -6 -149 -9 -80 -3 -163 -8 -185 -11 -135 -18
-245 -38 -246 -45 -1 -3 -3 -22 -5 -41 -22 -257 -22 -599 2 -790 3 -19 6 -48
8 -65 2 -16 7 -46 11 -65 3 -19 8 -48 10 -65 12 -94 21 -100 159 -110 45 -3
104 -8 131 -10 68 -7 419 -7 475 -1 146 16 168 19 233 31 15 3 37 7 50 9 96
17 97 17 98 45 1 14 3 42 5 61 12 123 18 536 10 635 -6 69 -17 165 -22 188 -2
12 -7 45 -10 72 -4 28 -9 54 -11 59 -3 4 -8 25 -10 45 -3 20 -6 37 -7 38 -3 3
-182 14 -318 18 -78 3 -143 7 -146 9 -2 3 -14 1 -26 -4 -12 -4 -29 -4 -38 1
-8 5 -17 7 -19 5z"/>
<path d="M15797 5503 c-1 -1 -51 -4 -112 -8 -60 -3 -121 -7 -135 -9 -112 -16
-224 -37 -232 -45 -13 -11 -21 -173 -22 -426 -1 -291 5 -361 51 -630 3 -16 6
-35 7 -42 4 -26 16 -29 141 -38 44 -4 105 -8 135 -10 73 -6 434 -7 485 -1 82
9 218 29 280 41 68 14 80 17 84 21 28 28 33 677 7 864 -7 55 -19 126 -23 145
-5 22 -14 72 -17 92 -3 21 -10 23 -97 28 -125 8 -549 22 -552 18z"/>
</g>
</svg>
